<?xml version="1.0" standalone="no"?><!DOCTYPE svg PUBLIC "-//W3C//DTD SVG 1.1//EN" "http://www.w3.org/Graphics/SVG/1.1/DTD/svg11.dtd"><svg t="1539929686036" class="icon" style="" viewBox="0 0 1024 1024" version="1.1" xmlns="http://www.w3.org/2000/svg" p-id="76978" xmlns:xlink="http://www.w3.org/1999/xlink" width="128" height="128"><defs><style type="text/css"></style></defs><path d="M300.68083 812.134896c0-29.228666-23.773426-52.953996-53.089073-52.953996L106.090141 759.1809c-29.271645 0-53.046094 23.730447-53.046094 52.953996 0 29.224573 23.773426 52.953996 53.046094 52.953996l141.500593 0C276.911497 865.088893 300.68083 841.362539 300.68083 812.134896L300.68083 812.134896zM106.081954 264.824216l141.498546 0c29.326903 0 53.100329-23.725331 53.100329-52.959113 0-29.272668-23.778542-52.94888-53.100329-52.94888L106.081954 158.916224c-29.267551 0-53.042 23.681328-53.042 52.94888C53.039954 241.094793 76.814403 264.824216 106.081954 264.824216L106.081954 264.824216zM53.044047 512.006651c0 29.272668 23.773426 52.949903 53.046094 52.949903l141.500593 0c29.320763 0 53.089073-23.682352 53.089073-52.949903 0-29.275738-23.773426-53.002092-53.089073-53.002092L106.090141 459.00456C76.818496 459.00456 53.044047 482.730914 53.044047 512.006651L53.044047 512.006651zM970.959023 970.986652 970.959023 52.953996c0-29.248109-32.811257-52.94888-73.202136-52.94888l-54.604587 0L716.105892 0.005117l0-0.005117L212.2294 0c-29.320763 0-53.042 23.705888-53.042 52.94888l0 52.960136 88.399241 0c58.64255 0 106.142329 47.446568 106.142329 105.950971 0 58.501334-47.494663 105.953018-106.142329 105.953018l-88.399241 0 0 88.271328 88.399241 0c58.64255 0 106.142329 47.407682 106.142329 105.907992 0 58.50645-47.494663 105.907992-106.142329 105.907992l-88.399241 0 0 88.272351 88.399241 0c58.64255 0 106.142329 47.455778 106.142329 105.962228 0 58.496217-47.494663 105.946878-106.142329 105.946878l-88.399241 0 0 52.904878c0 29.277784 23.725331 53.008231 53.042 53.008231l503.880585 0 18.217902 0 163.429 0 0-0.005117C938.146742 1023.989767 970.959023 1000.260343 970.959023 970.986652L970.959023 970.986652zM808.249407 438.711395l0 73.379168L700.842272 512.090563l0 78.539696 107.411228 0 0 63.774425L700.842272 654.404683l0 118.213237-97.035937 0L603.806335 654.404683l-111.069544 0 0-63.774425 111.069544 0 0-78.539696-111.069544 0 0-73.379168 89.404127 0L473.044307 249.19937l93.53521 0 88.07997 171.816009 91.036298-171.816009L833.741985 249.19937 721.285863 438.711395 808.249407 438.711395 808.249407 438.711395zM897.756887 1023.994883l65.361571 0 0 0.005117-65.361571 0L897.756887 1023.994883 897.756887 1023.994883zM897.756887 1023.994883" p-id="76979" fill=""></path></svg>