<?xml version="1.0" standalone="no"?><!DOCTYPE svg PUBLIC "-//W3C//DTD SVG 1.1//EN" "http://www.w3.org/Graphics/SVG/1.1/DTD/svg11.dtd"><svg t="1539930028241" class="icon" style="" viewBox="0 0 1024 1024" version="1.1" xmlns="http://www.w3.org/2000/svg" p-id="90435" xmlns:xlink="http://www.w3.org/1999/xlink" width="128" height="128"><defs><style type="text/css"></style></defs><path d="M472.36 741.94A221.46 221.46 0 0 1 487 662.62H288.28c-20.94 0-38-14.27-38-31.75s17.09-31.76 38-31.76h209.34a43.06 43.06 0 0 1 22 5.89 222 222 0 0 1 333.33-18.41V186.32C852.87 116.82 796 60 726.57 60H234c-69.47 0-126.39 56.78-126.39 126.27V790.1c0 69.41 56.83 126.28 126.39 126.28h323a221.62 221.62 0 0 1-84.64-174.44zM287.24 218.43h370.14c20.37 0 37 14.27 37 31.76s-16.63 31.76-37 31.76H287.24c-20.37 0-37-14.27-37-31.76s16.63-31.76 37-31.76z m0 190.45h370.14c20.37 0 37 14.27 37 31.76s-16.63 31.75-37 31.75H287.24c-20.37 0-37-14.27-37-31.75s16.63-31.76 37-31.76z m407.05 142.71c-106.67 0-190.48 83.74-190.48 190.31s83.81 190.31 190.48 190.31 190.48-83.73 190.48-190.31S801 551.59 694.29 551.59z m-34.52 224.95v-173h34.6v138.4h138.4v34.6z" p-id="90436" fill="#"></path></svg>