<?xml version="1.0" standalone="no"?><!DOCTYPE svg PUBLIC "-//W3C//DTD SVG 1.1//EN" "http://www.w3.org/Graphics/SVG/1.1/DTD/svg11.dtd"><svg t="1539929357638" class="icon" style="" viewBox="0 0 1024 1024" version="1.1" xmlns="http://www.w3.org/2000/svg" p-id="66513" xmlns:xlink="http://www.w3.org/1999/xlink" width="128" height="128"><defs><style type="text/css"></style></defs><path d="M692.200594 330.264381l-107.666285 102.107429L450.048975 367.664762a26.965333 26.965333 0 0 0-29.062095 3.510857L271.092785 494.299429a27.209143 27.209143 0 0 0-3.803429 38.424381c5.36381 6.631619 13.116952 9.99619 21.016381 9.99619 6.095238 0 12.288-1.950476 17.359238-6.046476l136.533334-112.249905 135.753142 65.243429A27.306667 27.306667 0 0 0 608.525166 484.839619l118.198857-112.152381 0.975238 38.521905a27.111619 27.111619 0 0 0 27.209143 26.526476 27.306667 27.306667 0 0 0 27.40419-27.794286l-2.681904-109.129143a26.819048 26.819048 0 0 0-27.940572-26.575238l-109.129143 2.681905a27.306667 27.306667 0 0 0-26.526476 27.989333 26.672762 26.672762 0 0 0 27.940571 26.526477l48.274286-1.170286z m170.081524 367.811048H159.720594c-55.198476 0-99.961905-44.860952-99.961904-99.961905V174.08c0-55.198476 44.909714-99.961905 99.961904-99.961905h702.561524c55.198476 0 99.961905 44.909714 99.961905 99.961905v423.984762a100.059429 100.059429 0 0 1-99.961905 100.059428zM971.362499 837.729524H50.688975A27.160381 27.160381 0 0 1 23.382309 810.520381c0-15.11619 12.141714-27.306667 27.257904-27.306667H971.313737a27.257905 27.257905 0 1 1 0 54.467048z" p-id="66514"></path><path d="M138.460404 995.230476a27.40419 27.40419 0 0 1-23.552-40.96l90.843428-157.500952a27.40419 27.40419 0 0 1 37.254096-9.996191 27.40419 27.40419 0 0 1 10.044952 37.254096L162.15869 981.577143a27.40419 27.40419 0 0 1-23.747048 13.653333z m744.984381 0a27.014095 27.014095 0 0 1-23.600762-13.653333L768.951832 824.07619a27.306667 27.306667 0 1 1 47.299048-27.306666l90.89219 157.549714a27.306667 27.306667 0 0 1-23.698285 40.96zM511.001356 110.445714a45.397333 45.397333 0 0 1-45.446095-45.446095V46.713905a45.397333 45.397333 0 1 1 90.89219 0v18.236952a45.397333 45.397333 0 0 1-45.446095 45.446095z" p-id="66515"></path></svg>