<?xml version="1.0" standalone="no"?><!DOCTYPE svg PUBLIC "-//W3C//DTD SVG 1.1//EN" "http://www.w3.org/Graphics/SVG/1.1/DTD/svg11.dtd"><svg t="1539929433374" class="icon" style="" viewBox="0 0 1024 1024" version="1.1" xmlns="http://www.w3.org/2000/svg" p-id="67247" xmlns:xlink="http://www.w3.org/1999/xlink" width="128" height="128"><defs><style type="text/css"></style></defs><path d="M492.412384 511.696078c127.731126 0 231.277434-100.241029 231.277434-223.857441 0-123.635855-103.545284-223.843114-231.277434-223.843114-127.72908 0-231.29176 100.207259-231.275387 223.843114 0.001023 123.616412 103.546308 223.857441 231.275387 223.857441z m123.996059 299.821553c0-88.609107 73.000618-160.441109 163.05054-160.441109 2.548032 0 5.078669 0.066515 7.596002 0.179079-51.434439-40.581254-117.085672-64.923662-188.621939-64.923662H405.675928c-164.994822 0-298.759361 129.445164-298.759361 289.140283v18.640546c0 65.267493 133.76454 65.330938 298.759361 65.330937H598.433046c40.654932 0 79.406514-0.149403 114.736161-1.308808-57.011458-24.996301-96.760764-81.237209-96.760764-146.617266z m260.365936-95.757924c-15.9646-15.708773-35.160801-27.072589-56.111972-33.511231-13.162788-4.046153-27.01733-6.15314-41.203424-6.153141-36.760229 0-71.320349 14.08581-97.31335 39.664372-25.994024 25.577538-40.308031 59.583027-40.308031 95.757924 0 36.171828 14.314007 70.177316 40.308031 95.754854 25.993001 25.577538 60.553121 39.664372 97.31335 39.664372 36.762275 0 71.322395-14.08581 97.315396-39.664372 7.910157-7.78429 14.732539-16.350386 20.403702-25.518186 12.969383-20.960381 19.904329-45.072545 19.904329-70.237691 0-36.172851-14.314007-70.178339-40.308031-95.756901zM843.821873 824.026526h-51.648311v50.823526h-25.428135v-50.823526h-51.648311v-25.018813h51.648311v-50.820456h25.428135v50.820456h51.648311v25.018813z" p-id="67248"></path></svg>