<?xml version="1.0" standalone="no"?><!DOCTYPE svg PUBLIC "-//W3C//DTD SVG 1.1//EN" "http://www.w3.org/Graphics/SVG/1.1/DTD/svg11.dtd"><svg t="1539929600379" class="icon" style="" viewBox="0 0 1024 1024" version="1.1" xmlns="http://www.w3.org/2000/svg" p-id="72781" xmlns:xlink="http://www.w3.org/1999/xlink" width="128" height="128"><defs><style type="text/css"></style></defs><path d="M614.4 0H403.2c-25.6 0-51.2 25.6-51.2 51.2s19.2 51.2 44.8 51.2h211.2c25.6 0 44.8-25.6 44.8-51.2C659.2 25.6 640 0 614.4 0z m230.4 38.4h-102.4v19.2c0 44.8-32 83.2-70.4 83.2H345.6c-38.4 0-70.4-44.8-70.4-83.2V38.4H172.8C83.2 38.4 64 83.2 64 153.6v691.2C64 921.6 96 960 179.2 960h659.2c83.2 0 121.6-32 121.6-115.2V153.6c0-70.4-38.4-115.2-115.2-115.2z m-108.8 684.8H275.2c-19.2 0-32-19.2-32-38.4s12.8-32 32-32h454.4c19.2 0 32 12.8 32 32 0 12.8-12.8 38.4-25.6 38.4z m0-185.6H281.6c-19.2 0-25.6-19.2-25.6-32 0-19.2 12.8-32 32-32h454.4c19.2 0 32 12.8 32 32-6.4 12.8-19.2 32-38.4 32z m0-192H281.6c-19.2 0-25.6-19.2-25.6-32s12.8-32 32-32h454.4c19.2 0 32 12.8 32 32-6.4 19.2-19.2 32-38.4 32z" p-id="72782" fill=""></path></svg>