<?xml version="1.0" standalone="no"?><!DOCTYPE svg PUBLIC "-//W3C//DTD SVG 1.1//EN" "http://www.w3.org/Graphics/SVG/1.1/DTD/svg11.dtd"><svg t="1539929651467" class="icon" style="" viewBox="0 0 1024 1024" version="1.1" xmlns="http://www.w3.org/2000/svg" p-id="76525" xmlns:xlink="http://www.w3.org/1999/xlink" width="128" height="128"><defs><style type="text/css"></style></defs><path d="M918.777844 719.815834 897.999027 740.483977 796.041718 638.96936 816.820535 618.301216C844.018373 590.992705 891.580005 590.992705 918.777844 618.301216 947.054742 646.218427 947.054742 691.870954 918.777844 719.815834ZM512.6087 860.785301C503.837882 868.892083 497.41886 880.208376 494.624372 891.469333L494.624372 891.497001 470.85739 986.398919C467.647879 998.766604 468.062902 1011.798325 472.572818 1023.723318L104.558119 1023.723318C92.771467 1023.723318 83.142934 1014.122453 83.142934 1002.391138L83.142934 21.33218C83.142934 9.600865 92.771467 0 104.558119 0L597.245717 0 597.245717 234.598649C597.245717 246.329965 606.87425 255.93083 618.660902 255.93083L854.310943 255.93083 854.310943 555.992434C828.358173 558.9806 804.397514 570.296893 786.606863 588.225885L512.6087 860.785301ZM221.483923 691.704945 498.165901 691.704945C513.438746 691.704945 525.834099 679.309592 525.834099 664.036747 525.834099 648.763902 513.438746 636.368549 498.165901 636.368549L221.483923 636.368549C206.211078 636.368549 193.815725 648.763902 193.815725 664.036747 193.815725 679.309592 206.211078 691.704945 221.483923 691.704945ZM221.483923 553.363956 415.161308 553.363956C430.434153 553.363956 442.829506 540.968603 442.829506 525.695758 442.829506 510.422913 430.434153 498.02756 415.161308 498.02756L221.483923 498.02756C206.211078 498.02756 193.815725 510.422913 193.815725 525.695758 193.815725 540.968603 206.211078 553.363956 221.483923 553.363956ZM608.838692 359.686571 221.483923 359.686571C206.211078 359.686571 193.815725 372.081924 193.815725 387.354769 193.815725 402.627614 206.211078 415.022967 221.483923 415.022967L608.838692 415.022967C624.111537 415.022967 636.50689 402.627614 636.50689 387.354769 636.50689 372.081924 624.111537 359.686571 608.838692 359.686571ZM640.103756 12.367684 841.887922 213.266469 640.103756 213.266469 640.103756 12.367684ZM541.770981 892.133369 541.770981 892.133369 765.828046 669.044691 867.785355 770.559308 643.72829 993.647987C640.933802 996.414807 637.502945 998.323912 633.850743 999.209295L538.146447 1023.059281C536.431019 1023.501972 534.71559 1023.723318 533.000162 1023.723318 527.438854 1023.723318 521.849878 1021.565199 517.754985 1017.525642 512.387355 1012.18568 510.256904 1004.549257 512.193677 997.272521L536.209673 901.927911C537.039719 898.303377 538.976493 894.678844 541.770981 892.133369Z" p-id="76526" fill=""></path></svg>