<?xml version="1.0" standalone="no"?><!DOCTYPE svg PUBLIC "-//W3C//DTD SVG 1.1//EN" "http://www.w3.org/Graphics/SVG/1.1/DTD/svg11.dtd"><svg t="1539929984203" class="icon" style="" viewBox="0 0 1046 1024" version="1.1" xmlns="http://www.w3.org/2000/svg" p-id="88817" xmlns:xlink="http://www.w3.org/1999/xlink" width="130.75" height="128"><defs><style type="text/css"></style></defs><path d="M1026.154942 161.191723c39.270149 94.738973 20.555632 207.868177-56.48353 284.902108-84.827288 84.837749-213.046313 98.060303-312.686209 41.869679l-72.002248 78.665828 51.347237 51.577377 30.7393-30.713148a40.201168 40.201168 0 0 1 56.849661 0l249.094511 251.626044a40.195937 40.195937 0 0 1 0 56.860121l-113.699322 113.709782a40.23255 40.23255 0 0 1-56.875812 0l-249.094511-251.631274c-15.707014-15.670401-15.707014-41.137417 0-56.8392l28.050854-28.061315-48.993539-49.092917-344.513441 376.382517c-31.419258 31.393105-82.327138 31.393105-113.725474 0l-28.437906-28.427445c-31.393105-31.419258-31.393105-82.316677 0-113.709782l392.466122-328.717511-260.659015-261.344202-82.306216-0.036613L0 115.006931 76.704414 38.218831l156.656931 95.858287 1.06701 80.606323 263.666518 264.717837 76.730566-64.245504C499.84184 312.92681 507.645658 168.943236 600.10939 76.495196 676.766729-0.162144 789.205514-19.200948 883.703888 19.352631l-168.974619 166.61046 142.137227 142.163379 169.288446-166.934747zM140.123508 898.390965a40.23255 40.23255 0 0 0-56.875813 0 40.23255 40.23255 0 0 0 0 56.860122 40.23255 40.23255 0 0 0 56.875813 0 40.195937 40.195937 0 0 0 0-56.860122z" fill="" p-id="88818"></path></svg>