<?xml version="1.0" standalone="no"?><!DOCTYPE svg PUBLIC "-//W3C//DTD SVG 1.1//EN" "http://www.w3.org/Graphics/SVG/1.1/DTD/svg11.dtd"><svg t="1539929867216" class="icon" style="" viewBox="0 0 1024 1024" version="1.1" xmlns="http://www.w3.org/2000/svg" p-id="82912" xmlns:xlink="http://www.w3.org/1999/xlink" width="128" height="128"><defs><style type="text/css"></style></defs><path d="M772.653 102.324H250.421c-54.972 0-100.783 45.811-100.783 100.783v82.456h105.364v82.46H149.638v105.364h105.364v82.456H149.638v105.364h105.364v82.459H149.638v77.876c0 54.972 45.811 100.783 100.783 100.783h522.232c54.972 0 100.783-45.811 100.783-100.783V203.107c0-54.972-45.811-100.783-100.783-100.783z m-32.064 627.6c-13.743 0-22.907-4.585-22.907-18.327-13.742-82.456-87.037-142.009-174.077-142.009-82.456 0-155.755 59.553-174.078 142.009 0 9.162-13.742 18.327-22.903 18.327-9.165 0-18.327-13.746-18.327-22.907 18.327-82.456 82.46-151.174 164.916-169.496-41.226-22.903-73.294-64.133-73.294-119.106 0-68.713 54.972-123.685 123.686-123.685 68.717 0 123.689 54.972 123.689 123.685 0 50.392-32.068 96.203-73.298 114.525 82.46 18.323 146.594 82.456 164.916 169.496-0.001 13.742-4.582 22.903-18.323 27.488z m-109.945-311.51c0-45.81-36.649-82.459-82.46-82.459-45.806 0-87.036 36.649-87.036 82.459 0 45.811 36.645 82.456 82.456 82.456 45.81 0 87.04-32.064 87.04-82.456z m0 0" p-id="82913" fill=""></path></svg>