<?xml version="1.0" standalone="no"?><!DOCTYPE svg PUBLIC "-//W3C//DTD SVG 1.1//EN" "http://www.w3.org/Graphics/SVG/1.1/DTD/svg11.dtd"><svg t="1539930008501" class="icon" style="" viewBox="0 0 1024 1024" version="1.1" xmlns="http://www.w3.org/2000/svg" p-id="89656" xmlns:xlink="http://www.w3.org/1999/xlink" width="128" height="128"><defs><style type="text/css"></style></defs><path d="M192 129.536h213.333333a64 64 0 0 1 64 64v213.333333a64 64 0 0 1-64 64h-213.333333a64 64 0 0 1-64-64v-213.333333a64 64 0 0 1 64-64z m0 426.666667h213.333333a64 64 0 0 1 64 64v213.333333a64 64 0 0 1-64 64h-213.333333a64 64 0 0 1-64-64v-213.333333a64 64 0 0 1 64-64z m426.666667 0h213.333333a64 64 0 0 1 64 64v213.333333a64 64 0 0 1-64 64h-213.333333a64 64 0 0 1-64-64v-213.333333a64 64 0 0 1 64-64z m-89.429334-301.269334l150.826667-150.869333a64 64 0 0 1 90.538667 0l150.826666 150.869333a64 64 0 0 1 0 90.496l-150.826666 150.869334a64 64 0 0 1-90.538667 0l-150.826667-150.869334a64 64 0 0 1 0-90.496z" p-id="89657" fill=""></path></svg>