<?xml version="1.0" standalone="no"?><!DOCTYPE svg PUBLIC "-//W3C//DTD SVG 1.1//EN" "http://www.w3.org/Graphics/SVG/1.1/DTD/svg11.dtd"><svg t="1539930100799" class="icon" style="" viewBox="0 0 1170 1024" version="1.1" xmlns="http://www.w3.org/2000/svg" p-id="94757" xmlns:xlink="http://www.w3.org/1999/xlink" width="146.25" height="128"><defs><style type="text/css"></style></defs><path d="M1024 877.714286H658.285714v73.142857h292.571429v73.142857H219.428571v-73.142857h292.571429v-73.142857H146.285714a146.285714 146.285714 0 0 1-146.285714-146.285715V146.285714a146.285714 146.285714 0 0 1 146.285714-146.285714h877.714286a146.285714 146.285714 0 0 1 146.285714 146.285714v585.142857a146.285714 146.285714 0 0 1-146.285714 146.285715z m-109.714286-365.714286c-11.483429 0-21.942857 3.291429-32.329143 6.509714L712.045714 314.587429c11.264-17.188571 19.382857-36.498286 19.382857-58.587429a109.714286 109.714286 0 1 0-219.428571 0c0 16.896 4.461714 32.402286 11.337143 46.665143L302.665143 523.337143A106.642286 106.642286 0 0 0 256 512 109.714286 109.714286 0 1 0 365.714286 621.714286c0-16.896-4.534857-32.402286-11.337143-46.665143l220.672-220.672c14.262857 6.802286 29.769143 11.337143 46.665143 11.337143 11.483429 0 21.942857-3.291429 32.329143-6.509715l169.910857 203.849143c-11.264 17.261714-19.382857 36.571429-19.382857 58.660572A109.714286 109.714286 0 1 0 914.285714 512z" fill="" p-id="94758"></path></svg>