<!-- <?xml version="1.0" standalone="no"?><!DOCTYPE svg PUBLIC "-//W3C//DTD SVG 1.1//EN" "http://www.w3.org/Graphics/SVG/1.1/DTD/svg11.dtd"><svg t="1511512690058" class="icon" style="" viewBox="0 0 1024 1024" version="1.1" xmlns="http://www.w3.org/2000/svg" p-id="3507" xmlns:xlink="http://www.w3.org/1999/xlink" width="64" height="64"><defs><style type="text/css"></style></defs><path d="M1013.703 693.345c6.865 6.865 10.297 14.874 10.297 24.027l0 205.944c0 9.916-3.432 18.115-10.297 24.599-6.865 6.483-15.255 9.725-25.171 9.725L782.588 957.64c-9.153 0-17.162-3.242-24.027-9.725-6.865-6.483-10.297-14.683-10.297-24.599L748.264 717.372c0-6.102 1.526-11.823 4.577-17.162s7.246-9.534 12.586-12.586 11.06-4.577 17.162-4.577l77.801 0L860.39 546.896c0-4.577-1.144-8.772-3.432-12.586s-5.339-6.865-9.153-9.153-8.009-3.432-12.585-3.432L543.464 521.725l0 161.323 77.801 0c9.153 0 17.162 3.432 24.027 10.297s10.297 14.874 10.297 24.027l0 205.944c0 6.102-1.526 11.823-4.577 17.162s-7.246 9.534-12.585 12.585-11.06 4.577-17.162 4.577L415.321 957.64c-6.102 0-11.823-1.526-17.162-4.577s-9.725-7.246-13.158-12.585-5.149-11.06-5.149-17.162L379.852 717.372c0-9.153 3.432-17.162 10.297-24.027s15.255-10.297 25.171-10.297l76.657 0L491.977 521.725 188.782 521.725c-7.628 0-13.92 2.479-18.878 7.437-4.958 4.958-7.437 10.869-7.437 17.734l0 136.152 77.801 0c9.916 0 18.115 3.432 24.599 10.297s9.725 14.874 9.725 24.027l0 205.944c0 9.916-3.242 18.115-9.725 24.599-6.483 6.483-14.683 9.725-24.599 9.725L34.324 957.64c-3.814 0-7.437-0.572-10.869-1.716-3.432-1.144-6.483-2.67-9.153-4.577-2.67-1.907-5.149-4.386-7.437-7.437-2.288-3.051-4.004-6.293-5.149-9.725C0.572 930.753 0 927.13 0 923.316L0 717.372c0-3.051 0.381-6.102 1.144-9.153s1.907-5.721 3.432-8.009 3.432-4.577 5.721-6.865 4.577-4.195 6.865-5.721 4.958-2.67 8.009-3.432 6.102-1.144 9.153-1.144l77.801 0L112.125 495.41c0-6.865 2.479-12.776 7.437-17.734s10.869-7.437 17.734-7.437l354.682 0L491.978 342.096l-76.657 0c-9.916 0-18.306-3.432-25.171-10.297s-10.297-14.874-10.297-24.027L379.853 101.828c0-9.916 3.432-18.306 10.297-25.171s15.255-10.297 25.171-10.297l205.944 0c6.102 0 11.823 1.716 17.162 5.149 5.339 3.432 9.534 7.818 12.585 13.158 3.051 5.339 4.577 11.06 4.577 17.162l0 205.944c0 9.153-3.432 17.162-10.297 24.027s-14.874 10.297-24.027 10.297l-77.801 0 0 128.143L885.56 470.24c7.628 0 13.92 2.479 18.878 7.437s7.437 10.869 7.437 17.734l0 187.638 76.657 0C998.448 683.048 1006.838 686.48 1013.703 693.345z" p-id="3508"></path></svg> -->
<?xml version="1.0" standalone="no"?><!DOCTYPE svg PUBLIC "-//W3C//DTD SVG 1.1//EN" "http://www.w3.org/Graphics/SVG/1.1/DTD/svg11.dtd"><svg t="1539936774416" class="icon" style="" viewBox="0 0 1024 1024" version="1.1" xmlns="http://www.w3.org/2000/svg" p-id="4040" xmlns:xlink="http://www.w3.org/1999/xlink" width="128" height="128"><defs><style type="text/css"></style></defs><path d="M568.5 432.8c-26.9 11-51.5 25.8-74 44.2-22.4 18.5-41.9 39.5-58.1 63.2-16.4 23.7-29 49.7-38 77.8-8.9 28.1-13.5 57.7-13.5 88.8 0 27.4 3.6 53.7 10.7 78.6 7.1 25 17 48.6 29.6 70.6H404c-15.2 0-33.1-0.5-53.4-1.6-20.3-1-41.3-2.5-62.8-4.3-21.6-1.9-43-4-64.4-6.3-21.3-2.4-40.8-4.8-58.1-7.6-17.3-2.6-32.1-5.3-44.4-7.9-12.1-2.6-19.8-5.3-22.9-7.9-5.8-4.2-10.2-17.2-13-39-2.8-21.9-1.7-49.9 3.6-84.1 2.1-13.1 6.4-23.9 13-32.5 6.6-8.4 14.6-15.7 24.2-21.7 9.5-6.1 20.1-10.9 31.7-14.6 11.8-3.7 23.7-7.3 35.6-10.7 11.9-3.3 23.5-7.1 35.2-11 11.3-4 21.7-8.8 31.2-14.6 11-6.8 19.7-13.5 25.6-20.1 6.1-6.6 10.4-13 13-19.3s4-12.9 4-19.7c0-6.9-0.2-14.5-0.7-22.9-1.1-12.1-5.3-21.7-12.6-28.9-7.3-7.1-15.6-14.4-24.5-21.7-4.2-3.7-8.1-8.8-11.4-15.4-3.5-6.6-6.4-13.3-9-20.1-2.7-8.2-5.3-16.4-7.9-24.5-3.7-1-7.3-2.8-11-5.5-3.1-2.6-6.6-6.3-10.3-11-3.7-4.7-6.8-11.6-9.5-20.6-2.6-8.9-3.7-17.1-3.1-24.5 0.5-7.3 2.1-14 4.7-19.7 2.1-5.8 5.6-11.3 10.3-16.6 0-19.9 1-40 3.1-60 2.1-16.9 5.8-35.1 11.2-54.5s13.4-36.8 24.5-52.2c10.5-14.7 21.9-26.6 34.1-35.9s24.8-16.5 38-21.7c13.3-5.3 26.3-8.8 39.2-10.7 12.9-1.9 25.4-2.7 37.5-2.7 15.4 0 30.5 1.6 45.5 5.1 15.1 3.3 29.1 8.1 42.4 13.8 13.3 5.8 24.9 12.4 35.2 19.8 10.3 7.3 18.3 14.7 24.2 22.1 13.8 16.9 23.8 35.4 30.1 55.6 6.3 20.3 10.8 39.7 13.5 58.1 2.6 21.2 4 42.6 4 63.9 3.7 2.6 6.6 6.1 8.7 10.3 2.1 3.7 3.8 8.4 5.1 14.2 1.4 5.8 1.5 12.9 0.4 21.3-1 11.6-3.2 20.7-6.7 27.3-3.5 6.6-7.2 11.6-11.4 15.4-4.7 4.2-9.8 7.1-15 8.7-1.1 3.3-2.2 6.8-3.2 10.3l-4 11c-2.2 3.7-3.4 7.6-5 11.9z m352.4 181.7c-13.1-30.2-31-56.8-53.4-79.3-22.4-22.6-48.7-40.5-79.1-53.8-30.4-13.1-62.7-19.7-96.9-19.7-34.8 0-67.4 6.6-97.8 19.7-30.4 13.1-56.6 31.1-79.1 53.8-22.4 22.7-40.3 49.1-53.4 79.3-13.3 30.4-19.8 62.6-19.8 96.8s6.6 66.4 19.8 96.8c13.1 30.2 31 56.6 53.4 79.3s48.7 40.4 79.1 53.3c30.4 12.9 62.9 19.3 97.8 19.3 34.3 0 66.7-6.4 96.9-19.3 30.4-12.9 56.6-30.7 79.1-53.3 22.4-22.7 40.3-49.1 53.4-79.3 13.3-30.2 19.8-62.6 19.8-96.8 0-34.2-6.6-66.5-19.8-96.8z m-225.4-44.9c20.8 0 38.7 17.1 38.7 38.7 0 21.7-18.3 39.8-40.3 38-19.5-1.1-35.2-16.9-36.3-36.3-1.9-22.1 16.1-40.4 37.9-40.4z m141.7 145.8h-1.5l-28.3 117.8c-3.7 16.4-18.6 28.3-35.7 28.3H619c-17.5 0-32.8-12.6-36.3-29.7l-22.1-115.9h-0.2c-19.7 0-35.4-16.4-34.3-36.3 0.9-17.5 15.1-31.7 32.3-32.8 19.7-1.1 36.3 14.9 36.3 34.3 0 8.3-3.1 15.7-8.1 21.7l34.3 30.9c8.1 7.2 20.8 4.6 25.4-5.5l26.3-60.3c3.7-8.3 12.3-14 21.4-14 9.2 0 17.5 5.7 21.4 14l26.8 61.6c4.3 10 16.9 12.6 24.9 5.9l41.5-34.1c-4.6-5.7-7.2-12.9-7.2-20.8 0-19.2 15.7-34.6 34.6-34.6 18.8 0 34.6 15.7 34.6 34.6 1.2 19.4-14.5 34.9-33.4 34.9z" p-id="4041" fill=""></path></svg>