<?xml version="1.0" standalone="no"?><!DOCTYPE svg PUBLIC "-//W3C//DTD SVG 1.1//EN" "http://www.w3.org/Graphics/SVG/1.1/DTD/svg11.dtd"><svg t="1539915415910" class="icon" style="" viewBox="0 0 1024 1024" version="1.1" xmlns="http://www.w3.org/2000/svg" p-id="4304" xmlns:xlink="http://www.w3.org/1999/xlink" width="64" height="64"><defs><style type="text/css"></style></defs><path d="M493.61818 958.270642c-9.731905 0.119999-19.583809 0.239998-29.555712 0.239998-213.496915 0-387.225219-30.275704-387.225218-139.967634 0-180.697235 174.209299-322.706849 387.225218-322.706848 35.922649 0 70.765309 4.08396 103.804986 11.653886 19.342811-13.576867 40.368606-24.989756 62.594389-34.001668a447.773627 447.773627 0 0 0-31.116696-10.091901C666.986486 420.385895 710.118065 346.496616 710.118065 260.352457c0-135.282679-110.772918-246.055597-246.055597-246.055597S218.006871 125.069779 218.006871 260.352457c0 86.144159 43.01158 159.912438 110.772918 203.044018C156.493472 512.535995 33.465673 654.065613 33.465673 813.978051c0 159.911438 190.668138 184.541198 430.595795 184.541198 21.866786 0 43.372576-0.119999 64.398371-0.599994-12.734876-12.25488-24.389762-25.470751-34.841659-39.648613z m-231.157743-697.918185c0-114.256884 87.345147-201.602031 201.602031-201.602031 114.256884 0 201.602031 87.345147 201.602031 201.602031 0 114.257884-87.345147 201.602031-201.602031 201.602032-114.256884 0-201.602031-87.344147-201.602031-201.602032zM968.548542 709.813068l-53.944474-9.131911c-3.364967-0.599994-7.809924-4.444957-8.770914-7.448927 0 0-0.359996-1.320987-3.363967-8.649915-3.003971-7.20893-3.604965-8.16992-3.724964-8.529917-1.440986-2.883972-1.200988-8.649916 0.840992-11.413889l31.71869-44.693563c6.847933-9.491907 6.12694-23.909767-2.04298-33.159676l-33.639671-33.520673c-8.890913-7.569926-23.308772-8.16992-32.679681-1.441986l-44.693564 31.597692c-2.762973 2.04298-8.769914 2.523975-12.494878 0.720992l-15.739846-6.486936c-3.362967-1.201988-7.327928-5.887943-7.808924-9.25191l-9.129911-53.944473c-1.922981-11.413889-12.615877-21.145793-24.990756-22.106784h-47.336537c-11.774885 0.720993-22.346782 10.332899-24.389762 21.986785l-9.130911 53.944473c-0.599994 3.363967-4.444957 7.689925-7.689925 8.769915 0 0-1.199988 0.360996-8.289919 3.364967-7.327928 3.002971-8.289919 3.603965-8.529917 3.723963-2.882972 1.561985-8.769914 1.201988-11.413888-0.719992l-44.693564-31.718691c-9.610906-6.727934-23.908767-6.006941-33.159676 2.04298l-33.639671 33.639672c-7.569926 8.769914-8.16992 23.067775-1.441986 32.679681l31.597691 44.573564c2.04198 2.882972 2.522975 9.009912 0.840992 12.614877l-6.607935 15.859845c-1.200988 3.362967-5.766944 7.327928-9.130911 7.808924l-53.824475 9.129911c-11.533887 1.922981-21.265792 12.495878-22.226783 24.990756v47.09654c0.839992 11.653886 10.331899 22.226783 21.985786 24.269763l53.945473 9.129911c3.363967 0.600994 7.689925 4.445957 8.649915 7.209929 0 0 0.359996 1.440986 3.483966 9.009912 3.003971 7.449927 3.724964 8.529917 3.724964 8.529917 1.441986 2.883972 1.080989 8.890913-0.840992 11.534887l-31.71769 44.572565c-6.848933 9.491907-6.12794 23.909767 2.04198 33.159676l33.639672 33.520673c8.891913 7.569926 23.188774 8.16992 32.67968 1.441986l44.573565-31.597692c2.763973-1.922981 8.890913-2.402977 12.615877-0.720993l15.738846 6.487937c3.363967 1.200988 7.328928 5.766944 7.809924 9.24991l9.129911 53.945473c2.04298 11.413889 12.614877 21.145793 24.989756 22.106784l47.577535-0.239998c11.533887-0.840992 22.226783-10.452898 24.149764-21.986785l9.129911-53.944473c0.600994-3.363967 4.445957-7.689925 7.809924-8.769914 0 0 1.200988-0.480995 8.16992-3.364968 7.328928-3.003971 8.289919-3.603965 8.409918-3.723963 3.003971-1.561985 8.889913-1.201988 11.533887 0.719993l44.693564 31.71869c9.731905 6.847933 23.788768 6.12694 33.159676-2.04298l33.639671-33.639671c7.569926-9.010912 8.289919-22.947776 1.442986-32.679681l-31.598691-44.453566c-1.921981-2.882972-2.522975-9.009912-0.839992-12.614877l6.606936-15.859845c1.201988-3.242968 5.766944-7.20793 9.130911-7.688925l53.945473-9.129911c11.413889-1.922981 21.144794-12.615877 22.105784-24.989756v-47.217539c-0.839992-11.773885-10.571897-22.466781-21.985785-24.269763z m-16.219842 60.552409L907.996133 777.814404c-16.459839 2.882972-31.838689 15.498849-38.086628 31.117696l-6.12694 14.897855c-6.727934 15.37785-5.16595 35.442654 4.324957 49.259519l0.239998 0.359996 26.071745 36.763641-17.420829 17.300831-36.88464-26.191744c-10.692896-7.448927-22.466781-8.529917-28.473722-8.529917-8.049921 0-15.859845 1.801982-22.58778 5.286949-0.719993 0.359996-2.281978 0.959991-5.285948 2.161979-4.08496 1.681984-6.12694 2.522975-7.087931 2.883971-16.099843 5.886943-29.075716 21.144794-31.959688 37.96563l-7.447927 44.212568-24.749758 0.119999-7.449927-44.09257c-2.762973-16.579838-15.617847-32.199686-31.476693-38.326625l-14.657857-6.006942c-6.247939-2.762973-13.33587-4.204959-20.544799-4.204959-10.812894 0-21.145793 3.123969-29.074716 8.769915l-36.523644 25.951746-17.42083-17.299831 26.190745-36.764641c9.971903-14.29786 11.413889-35.082657 3.483966-50.581506-0.239998-0.599994-0.959991-2.161979-2.401977-5.645945l-2.402976-6.007941-0.239998-0.599994c-5.406947-16.33984-21.145793-29.67571-38.326626-32.679681l-44.213568-7.448927v-24.62976l44.333567-7.568926c16.579838-2.882972 31.958688-15.618847 38.085628-31.357694l6.12794-14.657856c6.967932-15.858845 5.16595-36.042648-4.685954-49.979512l-25.950747-36.523644 17.41983-17.42183 36.88464 26.191745c10.692896 7.449927 22.466781 8.529917 28.474722 8.529916 7.809924 0 15.37785-1.681984 21.865787-5.04595 0.600994-0.239998 2.282978-0.959991 6.007941-2.522976l0.239998-0.119999a113.454892 113.454892 0 0 1 5.04595-2.04198l1.681984-0.359996-1.441986 0.239998c0.359996-0.119999 0.720993-0.239998 0.840992-0.359997 16.459839-5.647945 29.795709-21.266792 32.799679-38.326626l7.448928-44.213568h24.749758l7.448927 44.333567c2.882972 16.579838 15.738846 32.078687 31.477693 38.205627l14.417859 5.886943c6.366938 2.883972 13.575867 4.325958 20.904796 4.325957 10.812894 0 21.144794-3.243968 29.194715-9.010912l36.523643-25.831747 17.42183 17.300831-25.951747 36.523643c-9.851904 13.816865-11.533887 33.76067-4.564955 49.13952 0.119999 0.359996 0.239998 0.599994 0.359996 0.840992 0.239998 0.599994 1.080989 2.282978 2.882972 6.727934 1.561985 3.724964 2.162979 5.406947 2.402977 6.006942 5.406947 16.699837 21.145793 30.276704 38.566623 33.279675l44.213568 7.449927v24.869757z m-227.432779 81.9392c-51.902493 0-94.19308-42.291587-94.19308-94.19408 0-51.902493 42.290587-94.19308 94.19308-94.193081 51.902493 0 94.19308 42.290587 94.19308 94.193081 0 52.022492-42.290587 94.19308-94.19308 94.19308z m0-155.347483c-33.639671 0-61.153403 27.392732-61.153403 61.033404 0 33.639671 27.392732 61.033404 61.153403 61.033404 33.639671 0 61.153403-27.392732 61.153403-61.033404 0-33.639671-27.512731-61.033404-61.153403-61.033404z m0-13.095872" fill="" p-id="4305"></path></svg>