<!-- <?xml version="1.0" standalone="no"?><!DOCTYPE svg PUBLIC "-//W3C//DTD SVG 1.1//EN" "http://www.w3.org/Graphics/SVG/1.1/DTD/svg11.dtd"><svg t="1503993891882" class="icon" style="" viewBox="0 0 1024 1024" version="1.1" xmlns="http://www.w3.org/2000/svg" p-id="7986" xmlns:xlink="http://www.w3.org/1999/xlink" width="64" height="64"><defs><style type="text/css"></style></defs><path d="M504.951 511.98c93.49 0 169.28-74.002 169.28-165.26 0-91.276-75.79-165.248-169.28-165.248-93.486 0-169.287 73.972-169.279 165.248-0.001 91.258 75.793 165.26 169.28 165.26z m77.6 55.098H441.466c-120.767 0-218.678 95.564-218.678 213.45V794.3c0 48.183 97.911 48.229 218.678 48.229H582.55c120.754 0 218.66-1.78 218.66-48.229v-13.77c0-117.887-97.898-213.45-218.66-213.45z" p-id="7987"></path></svg> -->

<?xml version="1.0" standalone="no"?><!DOCTYPE svg PUBLIC "-//W3C//DTD SVG 1.1//EN" "http://www.w3.org/Graphics/SVG/1.1/DTD/svg11.dtd"><svg t="1539928211649" class="icon" style="" viewBox="0 0 1103 1024" version="1.1" xmlns="http://www.w3.org/2000/svg" p-id="53121" xmlns:xlink="http://www.w3.org/1999/xlink" width="137.875" height="128"><defs><style type="text/css"></style></defs><path d="M627.559703 581.429499A283.393745 283.393745 0 0 0 499.953798 551.043392c-45.42172 10.627265-78.877926 15.901538-100.289898 15.901538-21.805574 0-53.136327-5.274272-94.149699-15.901538C135.792836 551.043392 0 696.518848 0 874.348423v19.443959c0 74.312137 135.792836 74.312137 302.444102 74.312138h194.439597c38.887919 0 76.122709-0.157441 110.366119-1.338248A313.46497 313.46497 0 0 1 551.043392 787.204846c0-78.720485 28.811697-150.592287 76.516311-205.775347zM145.318015 254.267165C145.318015 115.640392 260.958407 0 399.58518 0a254.424606 254.424606 0 0 1 254.424606 254.267165 252.377874 252.377874 0 0 1-254.345886 254.424607 254.424606 254.424606 0 0 1-254.267165-254.345886z m540.179965 509.715138l-51.247035-38.96664a11.729352 11.729352 0 0 1-2.912658-15.114333l48.570539-81.711863a11.965514 11.965514 0 0 1 14.799451-5.195552l60.457332 23.616146c12.595278-9.210297 26.213921-17.239786 41.013372-23.143823l9.210297-62.582785A11.808073 11.808073 0 0 1 817.354792 551.043392h97.062357a11.808073 11.808073 0 0 1 11.886794 9.918781l9.289017 62.582786c14.799451 5.904036 28.339374 13.697364 40.934652 23.143822l60.536052-23.616145a12.359116 12.359116 0 0 1 14.799452 5.195552l48.570539 81.711863a11.729352 11.729352 0 0 1-2.912658 15.114333l-51.247036 38.96664c0.944646 7.557167 1.65313 15.350495 1.65313 23.143822 0 7.793328-0.708484 15.586656-1.65313 23.143823l51.168315 38.96664a11.41447 11.41447 0 0 1 2.991379 15.114333l-48.570539 81.711863a11.965514 11.965514 0 0 1-14.799452 5.195552l-60.457332-23.616146c-12.595278 9.210297-26.213921 17.239786-41.013372 23.143823l-9.289017 62.582785a11.808073 11.808073 0 0 1-11.808073 9.918781h-97.141078a11.808073 11.808073 0 0 1-11.965514-9.918781l-9.210297-62.582785a178.931662 178.931662 0 0 1-41.013372-23.143823l-60.457332 23.616146a12.359116 12.359116 0 0 1-14.799451-5.195552L631.338287 864.350921a11.729352 11.729352 0 0 1 2.912658-15.114333l51.168315-38.96664a178.6955 178.6955 0 0 1-1.57441-23.143822c0-8.029489 0.629764-15.586656 1.57441-23.143823z m180.34863-59.512686c-46.838688 0-85.018123 37.077348-85.018123 82.656509 0 45.657881 38.179435 82.656509 85.018123 82.656509 46.838688 0 85.018123-37.077348 85.018124-82.656509 0-45.579161-38.179435-82.656509-85.018124-82.656509z" p-id="53122" fill=""></path></svg>