<?xml version="1.0" standalone="no"?><!DOCTYPE svg PUBLIC "-//W3C//DTD SVG 1.1//EN" "http://www.w3.org/Graphics/SVG/1.1/DTD/svg11.dtd"><svg t="1539929521084" class="icon" style="" viewBox="0 0 1024 1024" version="1.1" xmlns="http://www.w3.org/2000/svg" p-id="68843" xmlns:xlink="http://www.w3.org/1999/xlink" width="128" height="128"><defs><style type="text/css"></style></defs><path d="M695.466667 505.6c51.2-49.066667 83.2-117.333333 83.2-194.133333 0-147.2-119.466667-266.666667-266.666667-266.666667S245.333333 164.266667 245.333333 311.466667c0 76.8 32 145.066667 83.2 194.133333C172.8 565.333333 61.866667 718.933333 61.866667 896v17.066667c0 36.266667 29.866667 66.133333 66.133333 66.133333h768c36.266667 0 66.133333-29.866667 66.133333-66.133333V896c0-177.066667-110.933333-330.666667-266.666666-390.4z m168.533333 354.133333c-2.133333 14.933333-14.933333 25.6-29.866667 25.6h-70.4c-14.933333 0-25.6-12.8-27.733333-27.733333 0-12.8 10.666667-23.466667 23.466667-23.466667h10.666666L682.666667 746.666667l-74.666667 74.666666c-10.666667 8.533333-25.6 8.533333-36.266667 0l-91.733333-91.733333c-8.533333-10.666667-6.4-23.466667 2.133333-34.133333s25.6-10.666667 36.266667-2.133334l72.533333 74.666667 74.666667-74.666667c10.666667-8.533333 25.6-8.533333 36.266667 0l108.8 106.666667V789.333333c0-12.8 12.8-23.466667 27.733333-23.466666 14.933333 0 25.6 12.8 27.733333 27.733333v66.133333z" p-id="68844" fill=""></path></svg>