<?xml version="1.0" standalone="no"?><!DOCTYPE svg PUBLIC "-//W3C//DTD SVG 1.1//EN" "http://www.w3.org/Graphics/SVG/1.1/DTD/svg11.dtd"><svg t="1539930554639" class="icon" style="" viewBox="0 0 1347 1024" version="1.1" xmlns="http://www.w3.org/2000/svg" p-id="103565" xmlns:xlink="http://www.w3.org/1999/xlink" width="168.375" height="128"><defs><style type="text/css"></style></defs><path d="M1239.578947 1024H269.473684a107.789474 107.789474 0 0 1-107.789473-107.789474v-53.894737H107.789474a107.789474 107.789474 0 0 1-107.789474-107.789473V107.789474a107.789474 107.789474 0 0 1 107.789474-107.789474h916.210526a107.789474 107.789474 0 0 1 107.789474 107.789474v53.894737h107.789473a107.789474 107.789474 0 0 1 107.789474 107.789473v646.736842a107.789474 107.789474 0 0 1-107.789474 107.789474zM916.210526 107.789474H215.578947a107.789474 107.789474 0 0 0-107.789473 107.789473v431.157895a107.412211 107.412211 0 0 0 53.894737 92.860632V269.473684a107.789474 107.789474 0 0 1 107.789473-107.789473h739.597474A107.358316 107.358316 0 0 0 916.210526 107.789474z m269.473685 269.473684H323.368421a53.894737 53.894737 0 0 0 0 107.789474h862.31579a53.894737 53.894737 0 1 0 0-107.789474z" fill="" p-id="103566"></path></svg>