<?xml version="1.0" standalone="no"?><!DOCTYPE svg PUBLIC "-//W3C//DTD SVG 1.1//EN" "http://www.w3.org/Graphics/SVG/1.1/DTD/svg11.dtd"><svg t="1539928813231" class="icon" style="" viewBox="0 0 1024 1024" version="1.1" xmlns="http://www.w3.org/2000/svg" p-id="62039" xmlns:xlink="http://www.w3.org/1999/xlink" width="128" height="128"><defs><style type="text/css"></style></defs><path d="M647.826286 0.950857L200.850286 0A127.561143 127.561143 0 0 0 73.142857 127.707429v766.317714c0 70.509714 57.197714 127.707429 127.707429 127.707428h574.683428a128 128 0 0 0 90.331429-37.376 128 128 0 0 0 37.376-90.331428v-638.537143L647.826286 0.950857z m31.963428 765.44H296.594286a31.890286 31.890286 0 1 1 0-63.853714h383.122285a31.963429 31.963429 0 0 1 0.073143 63.853714z m0-191.634286H296.594286a31.890286 31.890286 0 1 1 0-63.853714h383.122285a31.963429 31.963429 0 0 1 0.073143 63.853714z m31.890286-319.268571a63.926857 63.926857 0 0 1-63.926857-63.926857V63.926857l191.634286 191.634286H711.68z" p-id="62040" fill=""></path></svg>