<?xml version="1.0" standalone="no"?><!DOCTYPE svg PUBLIC "-//W3C//DTD SVG 1.1//EN" "http://www.w3.org/Graphics/SVG/1.1/DTD/svg11.dtd"><svg t="1539928573909" class="icon" style="" viewBox="0 0 1024 1024" version="1.1" xmlns="http://www.w3.org/2000/svg" p-id="54525" xmlns:xlink="http://www.w3.org/1999/xlink" width="128" height="128"><defs><style type="text/css"></style></defs><path d="M819.2 248.32H51.2a25.6 25.6 0 0 0-25.6 25.6v100.864h819.2V273.92a25.6 25.6 0 0 0-25.6-25.6zM25.6 785.92a25.6 25.6 0 0 0 25.6 25.6h513.024V497.664H844.8v-71.68H25.6v359.936z m49.152-268.8h215.04v51.2h-215.04v-51.2z m0 102.4h129.024v51.2H74.752v-51.2z" fill="" p-id="54526"></path><path d="M982.50752 760.36096l-41.84576-24.16128c0.57344-5.37088 0.90624-10.80832 0.90624-16.32768s-0.32768-10.96192-0.90624-16.32256l41.84576-24.16128a25.59488 25.59488 0 0 0 9.3696-34.9696l-35.84-62.07488a25.6 25.6 0 0 0-34.9696-9.37472l-41.96864 24.23296a151.73632 151.73632 0 0 0-28.15488-16.3584V532.48a25.6 25.6 0 0 0-25.6-25.6h-71.68a25.6 25.6 0 0 0-25.6 25.6v48.3584a151.56736 151.56736 0 0 0-28.15488 16.3584l-41.96864-24.23296a25.6 25.6 0 0 0-34.9696 9.37472l-35.84 62.07488a25.58976 25.58976 0 0 0 9.3696 34.9696l41.84576 24.16128c-0.57344 5.36576-0.90624 10.8032-0.90624 16.32256s0.32768 10.96192 0.90624 16.32768l-41.84576 24.16128a25.58976 25.58976 0 0 0-9.3696 34.9696l35.84 62.07488a25.59488 25.59488 0 0 0 34.9696 9.3696l41.96864-24.22784a151.26016 151.26016 0 0 0 28.15488 16.35328v48.36352a25.6 25.6 0 0 0 25.6 25.6h71.68a25.6 25.6 0 0 0 25.6-25.6v-48.36352a151.424 151.424 0 0 0 28.15488-16.35328l41.96864 24.22784a25.59488 25.59488 0 0 0 34.9696-9.3696l35.84-62.07488a25.58976 25.58976 0 0 0-9.3696-34.96448zM789.504 799.232c-43.83232 0-79.36-35.52768-79.36-79.36 0-43.8272 35.52768-79.36 79.36-79.36 43.8272 0 79.36 35.5328 79.36 79.36 0 43.8272-35.5328 79.36-79.36 79.36z" fill="" p-id="54527"></path></svg>